HIERARCHY
ROOT SimulationBone
{
	OFFSET 0.000000 0.000000 0.000000
	CHANNELS 6 Xposition Yposition Zposition Zrotation Yrotation Xrotation 
	JOINT Hips
	{
		OFFSET 0.000000 0.000000 0.000000
		CHANNELS 6 Xposition Yposition Zposition Zrotation Yrotation Xrotation 
		JOINT RightUpLeg
		{
			OFFSET 0.103458 1.857831 10.548500
			CHANNELS 3 Zrotation Yrotation Xrotation
			JOINT RightLeg
			{
				OFFSET 43.500000 -0.000027 -0.000013
				CHANNELS 3 Zrotation Yrotation Xrotation
				JOINT RightFoot
				{
					OFFSET 42.372196 0.000031 0.000011
					CHANNELS 3 Zrotation Yrotation Xrotation
					JOINT RightToe
					{
						OFFSET 17.299994 -0.000003 -0.000004
						CHANNELS 3 Zrotation Yrotation Xrotation
						End Site
						{
							OFFSET 0.000000 0.000000 0.000000
						}
					}
				}
			}
		}
		JOINT LeftUpLeg
		{
			OFFSET 0.103455 1.857826 -10.548502
			CHANNELS 3 Zrotation Yrotation Xrotation
			JOINT LeftLeg
			{
				OFFSET 43.500038 -0.000023 0.000010
				CHANNELS 3 Zrotation Yrotation Xrotation
				JOINT LeftFoot
				{
					OFFSET 42.372261 0.000004 0.000006
					CHANNELS 3 Zrotation Yrotation Xrotation
					JOINT LeftToe
					{
						OFFSET 17.299988 -0.000008 0.000010
						CHANNELS 3 Zrotation Yrotation Xrotation
						End Site
						{
							OFFSET 0.000000 0.000000 0.000000
						}
					}
				}
			}
		}
		JOINT Spine
		{
			OFFSET 6.901968 -2.603722 -0.000004
			CHANNELS 3 Zrotation Yrotation Xrotation
			JOINT Spine1
			{
				OFFSET 12.588099 -0.000002 0.000005
				CHANNELS 3 Zrotation Yrotation Xrotation
				JOINT Spine2
				{
					OFFSET 12.343202 -0.000017 -0.000005
					CHANNELS 3 Zrotation Yrotation Xrotation
					JOINT Neck
					{
						OFFSET 25.832903 0.000008 0.000008
						CHANNELS 3 Zrotation Yrotation Xrotation
						JOINT Head
						{
							OFFSET 11.766607 0.000004 -0.000001
							CHANNELS 3 Zrotation Yrotation Xrotation
							End Site
							{
								OFFSET 0.000000 0.000000 0.000000
							}
						}
					}
					JOINT RightShoulder
					{
						OFFSET 19.745907 -1.480366 6.000107
						CHANNELS 3 Zrotation Yrotation Xrotation
						JOINT RightArm
						{
							OFFSET 11.284126 -0.000031 -0.000025
							CHANNELS 3 Zrotation Yrotation Xrotation
							JOINT RightForeArm
							{
								OFFSET 33.000050 0.000011 0.000029
								CHANNELS 3 Zrotation Yrotation Xrotation
								JOINT RightHand
								{
									OFFSET 25.200008 0.000009 0.000011
									CHANNELS 3 Zrotation Yrotation Xrotation
									End Site
									{
										OFFSET 0.000000 0.000000 0.000000
									}
								}
							}
						}
					}
					JOINT LeftShoulder
					{
						OFFSET 19.746094 -1.480364 -6.000070
						CHANNELS 3 Zrotation Yrotation Xrotation
						JOINT LeftArm
						{
							OFFSET 11.284145 -0.000017 -0.000020
							CHANNELS 3 Zrotation Yrotation Xrotation
							JOINT LeftForeArm
							{
								OFFSET 33.000088 0.000019 0.000022
								CHANNELS 3 Zrotation Yrotation Xrotation
								JOINT LeftHand
								{
									OFFSET 25.199780 0.000137 0.000414
									CHANNELS 3 Zrotation Yrotation Xrotation
									End Site
									{
										OFFSET 0.000000 0.000000 0.000000
									}
								}
							}
						}
					}
				}
			}
		}
	}
}
MOTION
Frames: 15
Frame Time: 0.016667
71.536021 0.000000 -2.864326 0.000000 90.788674 0.000000 -0.495830 89.765350 -2.238804 94.636215 -5.434876 179.467130 -171.181054 11.725957 176.483574 -20.561001 -2.905726 -13.310199 88.210923 8.899291 -1.871545 21.454555 0.003114 0.000016 151.531828 3.235927 -173.962015 -36.545079 -1.782483 0.495616 78.819049 1.198507 6.083631 21.454552 -0.003095 -0.000001 8.984616 -0.997202 -2.271092 7.994405 -1.835270 -4.606118 7.677234 -1.863179 -4.594991 20.384465 3.563109 -24.529860 -8.738239 9.066349 -28.045151 127.762555 -73.422631 52.008421 1.267283 49.686346 21.029274 -60.317119 -20.108315 2.493443 8.933163 -9.428858 22.655112 -177.439593 74.571218 3.997858 13.379979 -54.996558 -64.302187 -22.187297 13.722421 -1.019673 14.787250 4.914370 7.571070 
71.265292 0.000000 -4.836551 0.000000 91.357043 0.000000 -0.491376 89.499489 -2.344549 94.340862 -5.393492 179.459631 -169.709560 11.841089 176.993875 -19.707100 -2.849379 -13.066804 88.589417 8.724124 -1.953405 21.454555 0.003122 0.000016 151.704866 3.133689 -172.964924 -30.498303 -0.923152 0.592496 78.500599 1.519902 7.657981 21.454555 -0.003095 -0.000003 8.882964 -0.929286 -2.361606 7.789463 -1.697697 -4.780797 7.472405 -1.726645 -4.770502 20.196586 3.664291 -24.618211 -8.538317 8.945111 -28.051791 127.694454 -73.384826 52.080678 1.254474 49.545693 20.592972 -60.964389 -19.967530 2.508648 8.907024 -9.373064 23.232528 -176.827013 74.389642 4.623275 14.431565 -54.653054 -64.990163 -21.850588 13.565382 -1.005286 14.830714 4.585207 7.048407 
70.987186 0.000000 -6.819823 0.000000 91.950633 0.000000 -0.481987 89.226436 -2.408402 94.076541 -5.362297 179.609844 -168.250130 11.839852 177.703649 -18.944525 -2.870656 -12.858237 88.839361 8.569677 -2.085489 21.454556 0.003114 0.000017 152.281365 3.138910 -171.974022 -24.333792 0.180047 0.779553 78.348606 1.789091 9.323298 21.454554 -0.003096 -0.000003 8.793213 -0.857204 -2.476573 7.608237 -1.549967 -5.004470 7.291322 -1.580256 -4.995058 19.982522 3.849690 -24.698753 -8.400367 8.837146 -28.052359 127.316514 -73.375824 52.463756 1.171409 49.588430 20.100359 -61.413132 -19.817749 2.515711 8.898278 -9.282366 23.414016 -176.132564 74.151690 5.332268 15.220034 -54.354768 -65.442431 -21.573671 13.446557 -0.994204 14.681023 4.348793 7.011555 
70.702534 0.000000 -8.818730 0.000000 92.559772 0.000000 -0.457760 88.917282 -2.436072 93.912600 -5.377369 179.851117 -166.755667 11.736809 178.409609 -18.360424 -2.957238 -12.572141 89.033926 8.358829 -2.257847 21.454558 0.003102 0.000017 153.057626 3.247695 -170.998130 -18.652622 1.306883 0.934189 78.495518 2.086412 11.054901 21.454553 -0.003098 -0.000002 8.730472 -0.793429 -2.603465 7.481262 -1.417156 -5.253048 7.164506 -1.448941 -5.244427 19.746002 4.066216 -24.774942 -8.329333 8.747370 -28.056507 126.756342 -73.397810 53.028271 0.983130 49.773329 19.638227 -61.643255 -19.693466 2.516103 8.859163 -9.263846 23.248815 -175.424311 73.969975 6.056776 15.794654 -54.217650 -65.860732 -21.256015 13.344516 -0.983500 14.477745 4.315204 7.250285 
70.414501 0.000000 -10.831039 0.000000 93.172245 0.000000 -0.416935 88.549902 -2.435995 93.883327 -5.445755 -179.907413 -165.229664 11.547355 178.900129 -18.050866 -3.086271 -12.107793 89.255164 8.024461 -2.452855 21.454559 0.003100 0.000017 153.754486 3.414534 -170.058796 -14.210090 2.215331 0.924735 79.000736 2.477264 12.865596 21.454551 -0.003099 -0.000003 8.701632 -0.744410 -2.723539 7.422450 -1.312896 -5.489436 7.105847 -1.346103 -5.481441 19.478302 4.255469 -24.842861 -8.309184 8.662551 -28.058168 126.223155 -73.446217 53.562986 0.672776 50.040177 19.299832 -61.645479 -19.619311 2.511090 8.777942 -9.396171 22.901018 -174.751820 73.930218 6.746769 16.195459 -54.316732 -66.343510 -20.830324 13.228337 -0.970664 14.401842 4.528408 7.442510 
70.124957 0.000000 -12.850498 0.000000 93.775246 0.000000 -0.411897 88.143211 -2.408708 93.906602 -5.457560 -179.737229 -163.884269 11.227907 179.204220 -18.169598 -3.255961 -11.567294 89.542659 7.640338 -2.644411 21.454560 0.003105 0.000016 154.157478 3.433899 -169.210560 -11.831887 2.670651 0.879028 79.504378 2.786509 14.281859 21.454551 -0.003096 -0.000003 8.689934 -0.684344 -2.816403 7.396896 -1.187582 -5.670953 7.080420 -1.221885 -5.663712 19.134894 4.408461 -24.856838 -8.294957 8.517944 -27.982297 125.896311 -73.518370 53.886887 0.251996 50.354449 19.104407 -61.435379 -19.564829 2.499051 8.741868 -9.638031 22.644162 -174.162406 73.919807 7.351897 16.374802 -54.494184 -66.516185 -20.435885 13.084099 -0.956726 14.503878 4.730894 7.409114 
69.837249 0.000000 -14.872205 0.000000 94.360703 0.000000 -0.483808 87.718860 -2.360031 93.896281 -5.315426 -179.695192 -162.909489 10.748737 179.386554 -18.827989 -3.452025 -11.061245 89.888401 7.282029 -2.839107 21.454558 0.003110 0.000016 154.134348 3.146297 -168.527454 -12.046586 2.522738 0.933817 79.597853 2.867141 14.826596 21.454551 -0.003089 0.000002 8.675505 -0.589381 -2.866358 7.363574 -0.995499 -5.764507 7.047180 -1.030373 -5.758415 18.712889 4.522979 -24.767268 -8.273378 8.274724 -27.764799 125.897919 -73.599230 53.878030 -0.228907 50.695697 19.077585 -61.032142 -19.510950 2.479490 8.827529 -9.900938 22.672702 -173.751617 73.812378 7.772605 16.281788 -54.577634 -66.065229 -20.204363 12.918485 -0.943386 14.758345 4.678219 7.133589 
69.556159 0.000000 -16.892212 0.000000 94.925219 0.000000 -0.566939 87.268402 -2.309543 93.871000 -5.085771 -179.784058 -162.195054 10.205011 179.414753 -19.911470 -3.603440 -10.536625 90.140410 6.892019 -3.183356 21.454558 0.003111 0.000017 153.840065 2.720894 -168.118481 -14.098776 2.060154 0.991380 79.153736 2.817137 14.525695 21.454551 -0.003085 0.000006 8.649913 -0.475464 -2.877973 7.306616 -0.768590 -5.780246 6.990255 -0.803565 -5.775516 18.411209 4.572240 -24.549436 -8.384176 8.050159 -27.452805 126.136966 -73.620576 53.634525 -0.593930 51.072916 19.344194 -60.444352 -19.539459 2.458866 8.979873 -10.031744 22.757284 -173.724564 73.623541 7.798437 15.983395 -54.564812 -65.435150 -20.030945 12.803254 -0.933985 14.970578 4.470374 7.107868 
69.282823 0.000000 -18.905576 0.000000 95.463054 0.000000 -0.585514 86.822172 -2.259434 93.878693 -4.810336 -179.951347 -161.565095 9.615831 179.217154 -21.224767 -3.668922 -9.909186 90.063209 6.397734 -3.740067 21.454559 0.003108 0.000018 153.571304 2.307196 -168.006914 -16.832708 1.626394 0.949784 78.129784 2.710080 13.434084 21.454550 -0.003089 0.000005 8.611805 -0.353259 -2.864582 7.224131 -0.527343 -5.745574 6.907766 -0.562107 -5.742302 18.382518 4.530779 -24.189428 -8.687205 7.946453 -27.085318 126.498195 -73.529414 53.277495 -0.694648 51.508302 20.033660 -59.670196 -19.730258 2.441907 9.133149 -9.925006 22.613250 -174.153866 73.407371 7.355013 15.538192 -54.519820 -65.061906 -19.786895 12.789734 -0.930422 14.962596 4.300723 7.688845 
69.016338 0.000000 -20.907734 0.000000 95.964839 0.000000 -0.537224 86.595734 -2.154286 93.973919 -4.270265 -179.988683 -160.883658 8.573696 178.653980 -22.479136 -3.783314 -9.118721 89.218245 5.798978 -4.100546 21.454562 0.003105 0.000018 153.878164 1.673001 -167.836586 -18.775502 1.368680 0.913371 76.527371 2.331040 11.213659 21.454550 -0.003094 0.000002 8.576587 -0.172617 -2.854291 7.144609 -0.169044 -5.713697 6.828236 -0.203619 -5.712587 18.393942 4.409418 -23.693544 -8.777214 7.841799 -26.561537 127.009728 -73.387810 52.772876 -0.636392 52.048513 21.176254 -58.679623 -20.054538 2.427013 9.301860 -9.733891 22.154690 -174.552997 73.234760 6.942809 14.839818 -54.593249 -64.575926 -19.484184 12.782599 -0.926354 14.810625 4.406904 8.177169 
68.759454 0.000000 -22.896910 0.000000 96.421519 0.000000 -0.447855 86.754183 -1.946140 94.166462 -3.270718 -179.703008 -160.172963 6.725433 177.608394 -23.620803 -4.048504 -8.104604 87.297938 5.094802 -3.935649 21.454563 0.003107 0.000018 155.100944 0.564553 -167.442230 -18.893957 1.370137 1.086177 74.500139 1.371652 7.675942 21.454549 -0.003093 0.000002 8.552939 0.112692 -2.871620 7.083101 0.400558 -5.730941 6.766727 0.365860 -5.733252 18.205297 4.253165 -23.070268 -8.308649 7.573228 -25.778581 127.706741 -73.264887 52.078814 -0.547945 52.723135 22.733665 -57.443312 -20.434529 2.408207 9.507771 -9.635161 21.388954 -174.491717 73.138112 7.004673 13.760927 -54.874163 -63.529606 -19.164224 12.682126 -0.916231 14.662743 4.891052 7.898610 
68.515407 0.000000 -24.872428 0.000000 96.826611 0.000000 -0.367594 87.075508 -1.654480 94.284474 -1.974511 -179.125224 -160.096274 4.331998 176.185659 -25.612712 -4.225803 -6.801018 84.757394 4.172429 -3.735974 21.454563 0.003108 0.000017 156.538182 -0.941609 -167.742192 -18.225626 1.603916 1.913156 72.683355 -0.375071 3.570795 21.454550 -0.003090 0.000003 8.506308 0.472515 -2.912216 6.971845 1.119203 -5.790963 6.655449 1.084125 -5.797589 17.933983 4.193019 -22.319317 -7.630809 7.065191 -24.761372 128.492193 -73.146131 51.294574 -0.411877 53.464294 24.484895 -55.964103 -20.705068 2.370599 9.719707 -9.643804 20.501228 -174.220012 72.964400 7.282105 12.301393 -55.144418 -62.016142 -18.844656 12.517876 -0.902375 14.693694 5.286363 7.345846 
68.282422 0.000000 -26.832782 0.000000 97.178598 0.000000 -0.326720 87.311243 -1.322723 94.194759 -0.637641 -178.405290 -161.230030 1.770218 174.588092 -29.321589 -4.021702 -5.228419 82.023357 2.926757 -4.035605 21.454559 0.003104 0.000017 157.504717 -2.605438 -169.407262 -18.057577 1.976664 3.606531 71.713768 -2.768448 -0.224498 21.454550 -0.003092 0.000002 8.410013 0.852142 -2.956684 6.760161 1.875059 -5.859395 6.443694 1.839565 -5.870566 17.752076 4.326497 -21.441446 -7.171148 6.309672 -23.564687 129.246475 -73.007310 50.543232 -0.213460 54.202173 26.196414 -54.257401 -20.737311 2.309410 9.909718 -9.694750 19.678497 -174.084996 72.570713 7.416715 10.503590 -55.181953 -60.264141 -18.539477 12.348536 -0.888365 15.008215 5.181297 7.170463 
68.056317 0.000000 -28.776593 0.000000 97.481340 0.000000 -0.258382 87.494202 -1.036228 94.086757 0.460727 -177.899602 -163.134601 -0.578105 172.937671 -34.252216 -3.469657 -3.721664 78.586257 1.556218 -4.723897 21.454557 0.003101 0.000017 158.189094 -4.043311 -171.167710 -18.641642 2.253800 5.193726 71.742394 -4.825328 -3.137104 21.454551 -0.003095 0.000000 8.312099 1.175253 -2.952474 6.548867 2.515151 -5.835214 6.232243 2.479802 -5.850241 17.680723 4.544902 -20.444073 -6.966236 5.438311 -22.243903 129.901808 -72.863914 49.892097 -0.046935 54.961550 27.802229 -52.345227 -20.637417 2.236836 10.113219 -9.555811 18.937651 -174.148801 72.039415 7.345220 8.318625 -55.044011 -58.370808 -18.272484 12.219903 -0.877284 15.341397 4.932296 7.479989 
67.833436 0.000000 -30.703486 0.000000 97.743355 0.000000 -0.090269 87.718241 -0.865738 94.160567 1.099508 -177.880223 -165.269363 -2.371708 171.357443 -39.706612 -2.732536 -2.606892 74.012033 0.310443 -5.511466 21.454558 0.003106 0.000017 158.901257 -4.945168 -171.694785 -19.856611 2.237678 5.724740 72.605857 -5.689999 -4.847348 21.454551 -0.003095 -0.000001 8.265420 1.380293 -2.859621 6.448244 2.917219 -5.639846 6.131386 2.883036 -5.657301 17.676010 4.727103 -19.335681 -6.938818 4.584122 -20.838432 130.389039 -72.738693 49.409383 -0.007292 55.780385 29.285502 -50.274173 -20.535842 2.160412 10.382125 -9.030141 18.282750 -174.382585 71.505993 7.098273 5.694465 -54.861631 -56.325757 -18.059296 12.159648 -0.870947 15.419386 4.955235 8.144938 
